# Blender v2.93.4 OBJ File: '7.blend'
# www.blender.org
mtllib 7.mtl
o Texto
v 0.155612 1.429422 -0.546724
v 1.533163 1.429422 -0.546724
v 1.533163 1.122614 -0.289281
v 0.857143 0.411287 0.307593
v 0.155612 0.411287 0.307593
v 0.844388 1.122614 -0.289281
v 0.155612 1.122614 -0.289281
v 1.619898 1.101118 -0.271244
v 1.619898 1.495865 -0.602476
v 0.068878 1.495865 -0.602476
v 0.068878 1.056171 -0.233529
v 0.670918 1.056171 -0.233529
v -0.015306 0.344844 0.363345
v 0.900510 0.344844 0.363345
v 0.612245 1.032721 -0.213852
v 0.038265 1.032721 -0.213852
v 0.038265 1.519315 -0.622153
v 1.650510 1.519315 -0.622153
v 1.650510 1.091347 -0.263045
v 0.918367 0.321394 0.383022
v -0.073980 0.321394 0.383022
v 0.155612 0.786635 -1.312769
v 1.533163 0.786635 -1.312769
v 1.533163 0.479826 -1.055326
v 0.857143 -0.231501 -0.458451
v 0.155612 -0.231501 -0.458451
v 0.844388 0.479826 -1.055326
v 0.155612 0.479826 -1.055326
v 1.619898 0.458330 -1.037288
v 1.619898 0.853077 -1.368520
v 0.068878 0.853077 -1.368520
v 0.068878 0.413384 -0.999574
v 0.670918 0.413384 -0.999574
v -0.015306 -0.297943 -0.402699
v 0.900510 -0.297943 -0.402699
v 0.612245 0.389933 -0.979896
v 0.038265 0.389933 -0.979896
v 0.038265 0.876528 -1.388198
v 1.650510 0.876528 -1.388198
v 1.650510 0.448559 -1.029089
v 0.918367 -0.321394 -0.383022
v -0.073980 -0.321394 -0.383022
v 0.155612 0.786635 -1.312769
v 0.155612 1.429422 -0.546724
v 1.533163 0.786635 -1.312769
v 1.533163 1.429422 -0.546724
v 1.533163 0.479826 -1.055326
v 1.533163 1.122614 -0.289281
v 0.857143 -0.231501 -0.458451
v 0.857143 0.411287 0.307593
v 0.155612 -0.231501 -0.458451
v 0.155612 0.411287 0.307593
v 0.844388 0.479826 -1.055326
v 0.844388 1.122614 -0.289281
v 0.155612 0.479826 -1.055326
v 0.155612 1.122614 -0.289281
v 1.619898 0.458330 -1.037288
v 1.619898 1.101118 -0.271244
v 1.619898 0.853077 -1.368520
v 1.619898 1.495865 -0.602476
v 0.068878 0.853077 -1.368520
v 0.068878 1.495865 -0.602476
v 0.068878 0.413384 -0.999574
v 0.068878 1.056171 -0.233529
v 0.670918 0.413384 -0.999574
v 0.670918 1.056171 -0.233529
v -0.015306 -0.297943 -0.402699
v -0.015306 0.344844 0.363345
v 0.900510 -0.297943 -0.402699
v 0.900510 0.344844 0.363345
v 0.612245 0.389933 -0.979896
v 0.612245 1.032721 -0.213852
v 0.038265 0.389933 -0.979896
v 0.038265 1.032721 -0.213852
v 0.038265 0.876528 -1.388198
v 0.038265 1.519315 -0.622153
v 1.650510 0.876528 -1.388198
v 1.650510 1.519315 -0.622153
v 1.650510 0.448559 -1.029089
v 1.650510 1.091347 -0.263045
v 0.918367 -0.321394 -0.383022
v 0.918367 0.321394 0.383022
v -0.073980 -0.321394 -0.383022
v -0.073980 0.321394 0.383022
vt 0.750000 0.000000
vt 0.450000 0.000000
vt 0.800000 0.000000
vt 0.850000 0.000000
vt 0.400000 0.000000
vt 0.900000 0.000000
vt 0.500000 0.000000
vt 0.350000 0.000000
vt 0.300000 0.000000
vt 0.050000 0.000000
vt 0.000000 0.000000
vt 0.100000 0.000000
vt 0.250000 0.000000
vt 0.200000 0.000000
vt 0.150000 0.000000
vt 0.650000 0.000000
vt 0.950000 0.000000
vt 0.550000 0.000000
vt 0.700000 0.000000
vt 0.600000 0.000000
vt 1.000000 0.000000
vt 0.750000 0.000000
vt 0.800000 0.000000
vt 0.450000 0.000000
vt 0.850000 0.000000
vt 0.400000 0.000000
vt 0.900000 0.000000
vt 0.500000 0.000000
vt 0.350000 0.000000
vt 0.300000 0.000000
vt 0.000000 0.000000
vt 0.050000 0.000000
vt 0.100000 0.000000
vt 0.250000 0.000000
vt 0.200000 0.000000
vt 0.150000 0.000000
vt 0.650000 0.000000
vt 0.950000 0.000000
vt 0.550000 0.000000
vt 0.700000 0.000000
vt 0.600000 0.000000
vt 1.000000 0.000000
vt 0.000000 1.000000
vt 0.142857 1.000000
vt 0.142857 0.000000
vt 0.000000 0.000000
vt 0.285714 1.000000
vt 0.285714 0.000000
vt 0.428571 1.000000
vt 0.428571 0.000000
vt 0.571429 1.000000
vt 0.571429 0.000000
vt 0.714286 1.000000
vt 0.714286 0.000000
vt 0.857143 1.000000
vt 0.857143 0.000000
vt 1.000000 1.000000
vt 1.000000 0.000000
vt 0.000000 1.000000
vt 0.142857 1.000000
vt 0.142857 0.000000
vt 0.000000 0.000000
vt 0.285714 1.000000
vt 0.285714 0.000000
vt 0.428571 1.000000
vt 0.428571 0.000000
vt 0.571429 1.000000
vt 0.571429 0.000000
vt 0.714286 1.000000
vt 0.714286 0.000000
vt 0.857143 1.000000
vt 0.857143 0.000000
vt 1.000000 1.000000
vt 1.000000 0.000000
vt 0.000000 1.000000
vt 0.142857 1.000000
vt 0.142857 0.000000
vt 0.000000 0.000000
vt 0.285714 1.000000
vt 0.285714 0.000000
vt 0.428571 1.000000
vt 0.428571 0.000000
vt 0.571429 1.000000
vt 0.571429 0.000000
vt 0.714286 1.000000
vt 0.714286 0.000000
vt 0.857143 1.000000
vt 0.857143 0.000000
vt 1.000000 1.000000
vt 1.000000 0.000000
vn 0.0000 0.6428 0.7660
vn 0.0000 0.0000 -1.0000
vn -0.0000 -0.6428 -0.7660
vn 0.0000 0.0000 1.0000
vn -0.7071 0.5417 -0.4545
vn 0.7071 0.5417 -0.4545
vn 0.9509 -0.2371 0.1989
vn 0.4535 -0.6827 0.5729
vn -0.8932 -0.3444 0.2890
vn -0.7071 -0.5417 0.4545
vn -0.9508 0.2372 -0.1990
vn 0.7071 -0.5417 0.4545
vn 0.8928 0.3450 -0.2895
vn -0.4534 0.6828 -0.5729
vn -0.8928 -0.3450 0.2895
vn 0.9509 -0.2372 0.1990
vn 0.4534 -0.6828 0.5729
usemtl None
s off
f 16/1/1 10/2/1 17/3/1
f 10/2/1 18/4/1 17/3/1
f 10/2/1 9/5/1 18/4/1
f 9/5/1 19/6/1 18/4/1
f 16/1/1 11/7/1 10/2/1
f 8/8/1 19/6/1 9/5/1
f 7/9/1 2/10/1 1/11/1
f 7/9/1 3/12/1 2/10/1
f 6/13/2 3/12/2 7/9/2
f 5/14/1 3/12/1 6/13/1
f 5/14/1 4/15/1 3/12/1
f 14/16/1 19/6/1 8/8/1
f 14/16/1 20/17/1 19/6/1
f 16/1/1 12/18/1 11/7/1
f 16/1/1 15/19/1 12/18/1
f 15/19/1 13/20/1 12/18/1
f 21/21/1 13/20/1 15/19/1
f 21/21/1 14/16/1 13/20/1
f 21/21/1 20/17/1 14/16/1
f 37/22/3 38/23/3 31/24/3
f 31/24/3 38/23/3 39/25/3
f 31/24/3 39/25/3 30/26/3
f 30/26/3 39/25/3 40/27/3
f 37/22/3 31/24/3 32/28/3
f 29/29/3 30/26/3 40/27/3
f 28/30/3 22/31/3 23/32/3
f 28/30/3 23/32/3 24/33/3
f 27/34/4 28/30/4 24/33/4
f 26/35/3 27/34/3 24/33/3
f 26/35/3 24/33/3 25/36/3
f 35/37/3 29/29/3 40/27/3
f 35/37/3 40/27/3 41/38/3
f 37/22/3 32/28/3 33/39/3
f 37/22/3 33/39/3 36/40/3
f 36/40/3 33/39/3 34/41/3
f 42/42/3 36/40/3 34/41/3
f 42/42/3 34/41/3 35/37/3
f 42/42/3 35/37/3 41/38/3
s 1
f 44/43/5 46/44/6 45/45/6 43/46/5
f 46/44/6 48/47/7 47/48/7 45/45/6
f 48/47/7 50/49/8 49/50/8 47/48/7
f 50/49/8 52/51/9 51/52/9 49/50/8
f 52/51/9 54/53/9 53/54/9 51/52/9
f 54/53/9 56/55/10 55/56/10 53/54/9
f 56/55/10 44/57/5 43/58/5 55/56/10
f 58/59/11 60/60/10 59/61/10 57/62/11
f 60/60/10 62/63/12 61/64/12 59/61/10
f 62/63/12 64/65/6 63/66/6 61/64/12
f 64/65/6 66/67/13 65/68/13 63/66/6
f 66/67/13 68/69/13 67/70/13 65/68/13
f 68/69/13 70/71/14 69/72/14 67/70/13
f 70/71/14 58/73/11 57/74/11 69/72/14
f 72/75/15 74/76/10 73/77/10 71/78/15
f 74/76/10 76/79/5 75/80/5 73/77/10
f 76/79/5 78/81/6 77/82/6 75/80/5
f 78/81/6 80/83/16 79/84/16 77/82/6
f 80/83/16 82/85/17 81/86/17 79/84/16
f 82/85/17 84/87/15 83/88/15 81/86/17
f 84/87/15 72/89/15 71/90/15 83/88/15
